# xmcd
#
# Track frame offsets:
#	150
#	9716
#	21515
#	32858
#	42007
#	50790
#	61751
#	73175
#	85292
#	95396
#	105332
#	114968
#	123206
#	136742
#	147296
#	157148
#	166940
#	174032
#	184148
#	193922
#
# Disc length: 2775 seconds
#
# Revision: 0
# Processed by: cddbd v1.5.1PL2 Copyright (c) Steve Scherf et al.
# Submitted via: dBpowerAMP V4.0
#
DISCID=0e0ad514
DTITLE=Elvis - At The Movies
DYEAR=2005
DGENRE=Rock and Roll
TTITLE0=Return To Sender
TTITLE1=G.I Blues
TTITLE2=Girls! Girls! Girls!
TTITLE3=Bossa Nova Baby
TTITLE4=Roustabout
TTITLE5=Jailhouse Rock
TTITLE6=Got A Lot O' Livin' To Do!
TTITLE7=Love Me Tender
TTITLE8=Treat Me Nice
TTITLE9=Loving You
TTITLE10=King Creole
TTITLE11=Crawfish
TTITLE12=Can't Help Falling In Love
TTITLE13=Viva Las Vegas
TTITLE14=I Got Lucky
TTITLE15=A Little Less Conversation
TTITLE16=I Slipped, I Stunbled, I Fell
TTITLE17=Swing Down Sweet Chariot
TTITLE18=Rubberneckin'
TTITLE19=Clean Up Your Own Backyard
EXTD=
EXTT0=
EXTT1=
EXTT2=
EXTT3=
EXTT4=
EXTT5=
EXTT6=
EXTT7=
EXTT8=
EXTT9=
EXTT10=
EXTT11=
EXTT12=
EXTT13=
EXTT14=
EXTT15=
EXTT16=
EXTT17=
EXTT18=
EXTT19=
PLAYORDER=
